<svg xmlns="http://www.w3.org/2000/svg" xmlns:xlink="http://www.w3.org/1999/xlink" xmlns:s="https://github.com/nturley/netlistsvg" width="955" height="510">
  <style>svg {
    stroke:#000;
    fill:none;
  }
  text {
    fill:#000;
    stroke:none;
    font-size:10px;
    font-weight: bold;
    font-family: "Courier New", monospace;
  }
  .nodelabel {
    text-anchor: middle;
  }
  .inputPortLabel {
    text-anchor: end;
  }
  .splitjoinBody {
    fill:#000;
  }</style>
  <g s:type="not" transform="translate(463,132)" s:width="30" s:height="20" id="cell_\12">
    <s:alias val="$_NOT_"/>
    <s:alias val="$not"/>
    <s:alias val="$logic_not"/>
    <path d="M0,0 L0,20 L20,10 Z" class="cell_\12"/>
    <circle cx="23" cy="10" r="3" class="cell_\12"/>
    <g s:x="0" s:y="10" s:pid="A"/>
    <g s:x="25" s:y="10" s:pid="Y"/>
  </g>
  <g s:type="eq" transform="translate(464.6666666666667,187)" s:width="25" s:height="25" id="cell_\14">
    <s:alias val="$eq"/>
    <circle r="12.5" cx="12.5" cy="12.5" class="cell_\14"/>
    <line x1="7.5" x2="17.5" y1="10" y2="10" class="cell_\14"/>
    <line x1="7.5" x2="17.5" y1="15" y2="15" class="cell_\14"/>
    <g s:x="3" s:y="5" s:pid="A"/>
    <g s:x="3" s:y="20" s:pid="B"/>
    <g s:x="25" s:y="12.5" s:pid="Y"/>
  </g>
  <g s:type="eq" transform="translate(464.6666666666667,247)" s:width="25" s:height="25" id="cell_\16">
    <s:alias val="$eq"/>
    <circle r="12.5" cx="12.5" cy="12.5" class="cell_\16"/>
    <line x1="7.5" x2="17.5" y1="10" y2="10" class="cell_\16"/>
    <line x1="7.5" x2="17.5" y1="15" y2="15" class="cell_\16"/>
    <g s:x="3" s:y="5" s:pid="A"/>
    <g s:x="3" s:y="20" s:pid="B"/>
    <g s:x="25" s:y="12.5" s:pid="Y"/>
  </g>
  <g s:type="eq" transform="translate(464.6666666666667,307)" s:width="25" s:height="25" id="cell_\18">
    <s:alias val="$eq"/>
    <circle r="12.5" cx="12.5" cy="12.5" class="cell_\18"/>
    <line x1="7.5" x2="17.5" y1="10" y2="10" class="cell_\18"/>
    <line x1="7.5" x2="17.5" y1="15" y2="15" class="cell_\18"/>
    <g s:x="3" s:y="5" s:pid="A"/>
    <g s:x="3" s:y="20" s:pid="B"/>
    <g s:x="25" s:y="12.5" s:pid="Y"/>
  </g>
  <g s:type="eq" transform="translate(464.6666666666667,372)" s:width="25" s:height="25" id="cell_\20">
    <s:alias val="$eq"/>
    <circle r="12.5" cx="12.5" cy="12.5" class="cell_\20"/>
    <line x1="7.5" x2="17.5" y1="10" y2="10" class="cell_\20"/>
    <line x1="7.5" x2="17.5" y1="15" y2="15" class="cell_\20"/>
    <g s:x="3" s:y="5" s:pid="A"/>
    <g s:x="3" s:y="20" s:pid="B"/>
    <g s:x="25" s:y="12.5" s:pid="Y"/>
  </g>
  <g s:type="eq" transform="translate(464.6666666666667,437)" s:width="25" s:height="25" id="cell_\22">
    <s:alias val="$eq"/>
    <circle r="12.5" cx="12.5" cy="12.5" class="cell_\22"/>
    <line x1="7.5" x2="17.5" y1="10" y2="10" class="cell_\22"/>
    <line x1="7.5" x2="17.5" y1="15" y2="15" class="cell_\22"/>
    <g s:x="3" s:y="5" s:pid="A"/>
    <g s:x="3" s:y="20" s:pid="B"/>
    <g s:x="25" s:y="12.5" s:pid="Y"/>
  </g>
  <g s:type="mux" transform="translate(605,22)" s:width="20" s:height="40" id="cell_\31">
    <s:alias val="$pmux"/>
    <s:alias val="$mux"/>
    <s:alias val="$_MUX_"/>
    <path d="M0,0 L20,10 L20,30 L0,40 Z" class="cell_\31"/>
    <g s:x="0" s:y="10" s:pid="A"/>
    <g s:x="0" s:y="30" s:pid="B"/>
    <g s:x="10" s:y="35" s:pid="S"/>
    <g s:x="20" s:y="20" s:pid="Y"/>
  </g>
  <g s:type="dff" transform="translate(660,32)" s:width="30" s:height="40" id="cell_\34">
    <s:alias val="$dff"/>
    <s:alias val="$_DFF_"/>
    <s:alias val="$_DFF_P_"/>
    <rect width="30" height="40" x="0" y="0" class="cell_\34"/>
    <path d="M0,35 L5,30 L0,25" class="cell_\34"/>
    <g s:x="30" s:y="10" s:pid="Q"/>
    <g s:x="0" s:y="30" s:pid="CLK"/>
    <g s:x="0" s:y="30" s:pid="C"/>
    <g s:x="0" s:y="10" s:pid="D"/>
  </g>
  <g s:type="generic" transform="translate(284,154)" s:width="30" s:height="40" id="cell_bit_count">
    <text x="15" y="-4" class="nodelabel cell_bit_count" s:attribute="ref">bit_counter</text>
    <rect width="30" height="40" s:generic="body" class="cell_bit_count"/>
    <g transform="translate(0,10)" s:x="0" s:y="10" s:pid="in0" id="port_bit_count~clock_input">
      <text x="-3" y="-4" class="inputPortLabel cell_bit_count">clock_input</text>
    </g>
    <g transform="translate(0,30)" s:x="0" s:y="10" s:pid="in0" id="port_bit_count~reset">
      <text x="-3" y="-4" class="inputPortLabel cell_bit_count">reset</text>
    </g>
    <g transform="translate(30,10)" s:x="30" s:y="10" s:pid="out0" id="port_bit_count~output">
      <text x="5" y="-4" style="fill:#000; stroke:none" class="cell_bit_count">output</text>
    </g>
  </g>
  <g s:type="generic" transform="translate(120,154)" s:width="30" s:height="40" id="cell_clock">
    <text x="15" y="-4" class="nodelabel cell_clock" s:attribute="ref">HSOSC</text>
    <rect width="30" height="40" s:generic="body" class="cell_clock"/>
    <g transform="translate(0,10)" s:x="0" s:y="10" s:pid="in0" id="port_clock~CLKHFEN">
      <text x="-3" y="-4" class="inputPortLabel cell_clock">CLKHFEN</text>
    </g>
    <g transform="translate(0,30)" s:x="0" s:y="10" s:pid="in0" id="port_clock~CLKHFPU">
      <text x="-3" y="-4" class="inputPortLabel cell_clock">CLKHFPU</text>
    </g>
    <g transform="translate(30,10)" s:x="30" s:y="10" s:pid="out0" id="port_clock~CLKHF">
      <text x="5" y="-4" style="fill:#000; stroke:none" class="cell_clock">CLKHF</text>
    </g>
  </g>
  <g s:type="generic" transform="translate(792,41.5)" s:width="30" s:height="40" id="cell_disp">
    <text x="15" y="-4" class="nodelabel cell_disp" s:attribute="ref">seven_seg_anim</text>
    <rect width="30" height="20" s:generic="body" class="cell_disp"/>
    <g transform="translate(0,10)" s:x="0" s:y="10" s:pid="in0" id="port_disp~A">
      <text x="-3" y="-4" class="inputPortLabel cell_disp">A</text>
    </g>
    <g transform="translate(30,10)" s:x="30" s:y="10" s:pid="out0" id="port_disp~segments">
      <text x="5" y="-4" style="fill:#000; stroke:none" class="cell_disp">segments</text>
    </g>
  </g>
  <g s:type="outputExt" transform="translate(907,42)" s:width="30" s:height="20" id="cell_output">
    <text x="15" y="-4" class="nodelabel cell_output" s:attribute="ref">output</text>
    <s:alias val="$_outputExt_"/>
    <path d="M30,0 L30,20 L15,20 L0,10 L15,0 Z" class="cell_output"/>
    <g s:x="0" s:y="10" s:pid="A"/>
  </g>
  <g s:type="constant" transform="translate(12,45.5)" s:width="30" s:height="20" id="cell_1">
    <text x="15" y="-4" class="nodelabel cell_1" s:attribute="ref">1</text>
    <s:alias val="$_constant_"/>
    <rect width="30" height="20" class="cell_1"/>
    <g s:x="30" s:y="10" s:pid="Y"/>
  </g>
  <g s:type="constant" transform="translate(387,76.5)" s:width="30" s:height="20" id="cell_10">
    <text x="15" y="-4" class="nodelabel cell_10" s:attribute="ref">10</text>
    <s:alias val="$_constant_"/>
    <rect width="30" height="20" class="cell_10"/>
    <g s:x="30" s:y="10" s:pid="Y"/>
  </g>
  <g s:type="constant" transform="translate(387,317)" s:width="30" s:height="20" id="cell_11">
    <text x="15" y="-4" class="nodelabel cell_11" s:attribute="ref">11</text>
    <s:alias val="$_constant_"/>
    <rect width="30" height="20" class="cell_11"/>
    <g s:x="30" s:y="10" s:pid="Y"/>
  </g>
  <g s:type="constant" transform="translate(387,382)" s:width="30" s:height="20" id="cell_100">
    <text x="15" y="-4" class="nodelabel cell_100" s:attribute="ref">100</text>
    <s:alias val="$_constant_"/>
    <rect width="30" height="20" class="cell_100"/>
    <g s:x="30" s:y="10" s:pid="Y"/>
  </g>
  <g s:type="constant" transform="translate(387,447)" s:width="30" s:height="20" id="cell_101">
    <text x="15" y="-4" class="nodelabel cell_101" s:attribute="ref">101</text>
    <s:alias val="$_constant_"/>
    <rect width="30" height="20" class="cell_101"/>
    <g s:x="30" s:y="10" s:pid="Y"/>
  </g>
  <g s:type="constant" transform="translate(528,22)" s:width="30" s:height="20" id="cell_000">
    <text x="15" y="-4" class="nodelabel cell_000" s:attribute="ref">000</text>
    <s:alias val="$_constant_"/>
    <rect width="30" height="20" class="cell_000"/>
    <g s:x="30" s:y="10" s:pid="Y"/>
  </g>
  <g s:type="constant" transform="translate(528,87)" s:width="30" s:height="20" id="cell_110101100011010001">
    <text x="15" y="-4" class="nodelabel cell_110101100011010001" s:attribute="ref">0x358d1</text>
    <s:alias val="$_constant_"/>
    <rect width="30" height="20" class="cell_110101100011010001"/>
    <g s:x="30" s:y="10" s:pid="Y"/>
  </g>
  <g s:type="constant" transform="translate(120,478)" s:width="30" s:height="20" id="cell_0">
    <text x="15" y="-4" class="nodelabel cell_0" s:attribute="ref">0</text>
    <s:alias val="$_constant_"/>
    <rect width="30" height="20" class="cell_0"/>
    <g s:x="30" s:y="10" s:pid="Y"/>
  </g>
  <g s:type="join" transform="translate(535.6,209)" s:width="4" s:height="40" id="cell_$join$,12,13,14,15,16,17,">
    <rect width="5" height="120" class="splitjoinBody" s:generic="body"/>
    <s:alias val="$_join_"/>
    <g s:x="5" s:y="20" s:pid="out"/>
    <g transform="translate(0,10)" s:x="0" s:y="10" s:pid="in0">
      <text x="-3" y="-4" class="inputPortLabel">0</text>
    </g>
    <g transform="translate(0,30)" s:x="0" s:y="10" s:pid="in0">
      <text x="-3" y="-4" class="inputPortLabel">1</text>
    </g>
    <g transform="translate(0,50)" s:x="0" s:y="10" s:pid="in0">
      <text x="-3" y="-4" class="inputPortLabel">2</text>
    </g>
    <g transform="translate(0,70)" s:x="0" s:y="10" s:pid="in0">
      <text x="-3" y="-4" class="inputPortLabel">3</text>
    </g>
    <g transform="translate(0,90)" s:x="0" s:y="10" s:pid="in0">
      <text x="-3" y="-4" class="inputPortLabel">4</text>
    </g>
    <g transform="translate(0,110)" s:x="0" s:y="10" s:pid="in0">
      <text x="-3" y="-4" class="inputPortLabel">5</text>
    </g>
  </g>
  <g s:type="join" transform="translate(744,31.5)" s:width="4" s:height="40" id="cell_$join$,22,23,24,80,">
    <rect width="5" height="40" class="splitjoinBody" s:generic="body"/>
    <s:alias val="$_join_"/>
    <g s:x="5" s:y="20" s:pid="out"/>
    <g transform="translate(0,10)" s:x="0" s:y="10" s:pid="in0">
      <text x="-3" y="-4" class="inputPortLabel">0:2</text>
    </g>
    <g transform="translate(0,30)" s:x="0" s:y="10" s:pid="in0">
      <text x="-3" y="-4" class="inputPortLabel">3</text>
    </g>
  </g>
  <g s:type="split" transform="translate(387,131.5)" s:width="5" s:height="40" id="cell_$split$,25,26,27,28,29,30,31,32,33,34,35,36,37,38,39,40,41,42,43,44,45,46,47,9,10,11,">
    <rect width="5" height="20" class="splitjoinBody" s:generic="body"/>
    <s:alias val="$_split_"/>
    <g s:x="0" s:y="20" s:pid="in"/>
    <g transform="translate(4,10)" s:x="4" s:y="10" s:pid="out0">
      <text x="5" y="-4">23:25</text>
    </g>
  </g>
  <line x1="392" x2="463" y1="142" y2="142" class="net_9,10,11"/>
  <line x1="392" x2="443" y1="142" y2="142" class="net_9,10,11"/>
  <line x1="443" x2="443" y1="142" y2="192" class="net_9,10,11"/>
  <circle cx="443" cy="142" r="2" style="fill:#000" class="net_9,10,11"/>
  <circle cx="443" cy="192" r="2" style="fill:#000" class="net_9,10,11"/>
  <line x1="443" x2="467.6666666666667" y1="192" y2="192" class="net_9,10,11"/>
  <line x1="392" x2="443" y1="142" y2="142" class="net_9,10,11"/>
  <line x1="443" x2="443" y1="142" y2="252" class="net_9,10,11"/>
  <circle cx="443" cy="252" r="2" style="fill:#000" class="net_9,10,11"/>
  <line x1="443" x2="467.6666666666667" y1="252" y2="252" class="net_9,10,11"/>
  <line x1="392" x2="443" y1="142" y2="142" class="net_9,10,11"/>
  <line x1="443" x2="443" y1="142" y2="312" class="net_9,10,11"/>
  <circle cx="443" cy="312" r="2" style="fill:#000" class="net_9,10,11"/>
  <line x1="443" x2="467.6666666666667" y1="312" y2="312" class="net_9,10,11"/>
  <line x1="392" x2="443" y1="142" y2="142" class="net_9,10,11"/>
  <line x1="443" x2="443" y1="142" y2="377" class="net_9,10,11"/>
  <circle cx="443" cy="377" r="2" style="fill:#000" class="net_9,10,11"/>
  <line x1="443" x2="467.6666666666667" y1="377" y2="377" class="net_9,10,11"/>
  <line x1="392" x2="443" y1="142" y2="142" class="net_9,10,11"/>
  <line x1="443" x2="443" y1="142" y2="442" class="net_9,10,11"/>
  <line x1="443" x2="467.6666666666667" y1="442" y2="442" class="net_9,10,11"/>
  <line x1="42" x2="453" y1="55.5" y2="55.5" class="net_48"/>
  <line x1="453" x2="453" y1="55.5" y2="207" class="net_48"/>
  <line x1="453" x2="467.6666666666667" y1="207" y2="207" class="net_48"/>
  <line x1="42" x2="52" y1="55.5" y2="55.5" class="net_48"/>
  <line x1="52" x2="52" y1="55.5" y2="164.5" class="net_48"/>
  <circle cx="52" cy="55.5" r="2" style="fill:#000" class="net_48"/>
  <circle cx="52" cy="164.5" r="2" style="fill:#000" class="net_48"/>
  <line x1="52" x2="120" y1="164.5" y2="164.5" class="net_48"/>
  <line x1="42" x2="52" y1="55.5" y2="55.5" class="net_48"/>
  <line x1="52" x2="52" y1="55.5" y2="184.5" class="net_48"/>
  <line x1="52" x2="120" y1="184.5" y2="184.5" class="net_48"/>
  <line x1="417" x2="433" y1="86.5" y2="86.5" class="net_49,50"/>
  <line x1="433" x2="433" y1="86.5" y2="267" class="net_49,50"/>
  <line x1="433" x2="467.6666666666667" y1="267" y2="267" class="net_49,50"/>
  <line x1="417" x2="467.6666666666667" y1="327" y2="327" class="net_51,52"/>
  <line x1="417" x2="467.6666666666667" y1="392" y2="392" class="net_53,54,55"/>
  <line x1="417" x2="467.6666666666667" y1="457" y2="457" class="net_56,57,58"/>
  <line x1="558" x2="605" y1="32" y2="32" class="net_59,60,61"/>
  <line x1="558" x2="580" y1="97" y2="97" class="net_62,63,64,65,66,67,68,69,70,71,72,73,74,75,76,77,78,79"/>
  <line x1="580" x2="580" y1="97" y2="52" class="net_62,63,64,65,66,67,68,69,70,71,72,73,74,75,76,77,78,79"/>
  <line x1="580" x2="605" y1="52" y2="52" class="net_62,63,64,65,66,67,68,69,70,71,72,73,74,75,76,77,78,79"/>
  <line x1="541.6" x2="615" y1="229.5" y2="229.5" class="net_12,13,14,15,16,17"/>
  <line x1="615" x2="615" y1="229.5" y2="57" class="net_12,13,14,15,16,17"/>
  <line x1="151" x2="202" y1="164.5" y2="164.5" class="net_21"/>
  <line x1="202" x2="202" y1="164.5" y2="477" class="net_21"/>
  <line x1="202" x2="635" y1="477" y2="477" class="net_21"/>
  <line x1="635" x2="635" y1="477" y2="62" class="net_21"/>
  <circle cx="202" cy="164.5" r="2" style="fill:#000" class="net_21"/>
  <line x1="635" x2="660" y1="62" y2="62" class="net_21"/>
  <line x1="151" x2="284" y1="164.5" y2="164.5" class="net_21"/>
  <line x1="625" x2="660" y1="42" y2="42" class="net_18,19,20"/>
  <line x1="150" x2="192" y1="488" y2="488" class="net_80"/>
  <line x1="192" x2="192" y1="488" y2="184.5" class="net_80"/>
  <circle cx="192" cy="488" r="2" style="fill:#000" class="net_80"/>
  <line x1="192" x2="284" y1="184.5" y2="184.5" class="net_80"/>
  <line x1="150" x2="700" y1="488" y2="488" class="net_80"/>
  <line x1="700" x2="700" y1="488" y2="62" class="net_80"/>
  <line x1="700" x2="744" y1="62" y2="62" class="net_80"/>
  <line x1="750" x2="792" y1="52" y2="52" class="net_22,23,24,80"/>
  <line x1="823" x2="907" y1="52" y2="52" class="net_2,3,4,5,6,7,8"/>
  <line x1="488" x2="536.1" y1="142" y2="142" class="net_12"/>
  <line x1="536.1" x2="536.1" y1="142" y2="219" class="net_12"/>
  <line x1="489.6666666666667" x2="503" y1="199.5" y2="199.5" class="net_13"/>
  <line x1="503" x2="503" y1="199.5" y2="239.5" class="net_13"/>
  <line x1="503" x2="535.6" y1="239.5" y2="239.5" class="net_13"/>
  <line x1="489.6666666666667" x2="535.6" y1="259.5" y2="259.5" class="net_14"/>
  <line x1="489.6666666666667" x2="503" y1="319.5" y2="319.5" class="net_15"/>
  <line x1="503" x2="503" y1="319.5" y2="279.5" class="net_15"/>
  <line x1="503" x2="535.6" y1="279.5" y2="279.5" class="net_15"/>
  <line x1="489.6666666666667" x2="513" y1="384.5" y2="384.5" class="net_16"/>
  <line x1="513" x2="513" y1="384.5" y2="299.5" class="net_16"/>
  <line x1="513" x2="535.6" y1="299.5" y2="299.5" class="net_16"/>
  <line x1="489.6666666666667" x2="536.1" y1="449.5" y2="449.5" class="net_17"/>
  <line x1="536.1" x2="536.1" y1="449.5" y2="320" class="net_17"/>
  <line x1="690" x2="744" y1="42" y2="42" class="net_22,23,24"/>
  <line x1="315" x2="387.5" y1="164.5" y2="164.5" class="net_25,26,27,28,29,30,31,32,33,34,35,36,37,38,39,40,41,42,43,44,45,46,47,9,10,11"/>
  <line x1="387.5" x2="387.5" y1="164.5" y2="152.5" class="net_25,26,27,28,29,30,31,32,33,34,35,36,37,38,39,40,41,42,43,44,45,46,47,9,10,11"/>
</svg>
