<svg xmlns="http://www.w3.org/2000/svg" xmlns:xlink="http://www.w3.org/1999/xlink" xmlns:s="https://github.com/nturley/netlistsvg" width="325" height="246.5">
  <style>svg {
    stroke:#000;
    fill:none;
  }
  text {
    fill:#000;
    stroke:none;
    font-size:10px;
    font-weight: bold;
    font-family: "Courier New", monospace;
  }
  line {
      stroke-linecap: round;
  }
  .nodelabel {
    text-anchor: middle;
  }
  .inputPortLabel {
    text-anchor: end;
  }
  .splitjoinBody {
    fill:#000;
  }</style>
  <g s:type="reduce_xor" transform="translate(147,46)" s:width="33" s:height="25" id="cell_\2">
    <s:alias val="$xor"/>
    <s:alias val="$reduce_xor"/>
    <s:alias val="$_XOR_"/>
    <path d="M3,0 A30 25 0 0 1 3,25 A30 25 0 0 0 33,12.5 A30 25 0 0 0 3,0 Z" class="cell_\2"/>
    <path d="M0,0 A30 25 0 0 1 0,25" class="cell_\2"/>
    <g s:x="2" s:y="5" s:pid="A"/>
    <g s:x="2" s:y="20" s:pid="B"/>
    <g s:x="33" s:y="12.5" s:pid="Y"/>
  </g>
  <g s:type="reduce_xor" transform="translate(215,118.5)" s:width="33" s:height="25" id="cell_\3">
    <s:alias val="$xor"/>
    <s:alias val="$reduce_xor"/>
    <s:alias val="$_XOR_"/>
    <path d="M3,0 A30 25 0 0 1 3,25 A30 25 0 0 0 33,12.5 A30 25 0 0 0 3,0 Z" class="cell_\3"/>
    <path d="M0,0 A30 25 0 0 1 0,25" class="cell_\3"/>
    <g s:x="2" s:y="5" s:pid="A"/>
    <g s:x="2" s:y="20" s:pid="B"/>
    <g s:x="33" s:y="12.5" s:pid="Y"/>
  </g>
  <g s:type="and" transform="translate(82,77)" s:width="30" s:height="25" id="cell_\4">
    <s:alias val="$and"/>
    <s:alias val="$logic_and"/>
    <s:alias val="$_AND_"/>
    <path d="M0,0 L0,25 L18,25 A12 12.5 0 0 0 18,0 Z" class="cell_\4"/>
    <g s:x="0" s:y="5" s:pid="A"/>
    <g s:x="0" s:y="20" s:pid="B"/>
    <g s:x="30" s:y="12.5" s:pid="Y"/>
  </g>
  <g s:type="and" transform="translate(82,157)" s:width="30" s:height="25" id="cell_\5">
    <s:alias val="$and"/>
    <s:alias val="$logic_and"/>
    <s:alias val="$_AND_"/>
    <path d="M0,0 L0,25 L18,25 A12 12.5 0 0 0 18,0 Z" class="cell_\5"/>
    <g s:x="0" s:y="5" s:pid="A"/>
    <g s:x="0" s:y="20" s:pid="B"/>
    <g s:x="30" s:y="12.5" s:pid="Y"/>
  </g>
  <g s:type="or" transform="translate(148,149.5)" s:width="30" s:height="25" id="cell_\6">
    <s:alias val="$or"/>
    <s:alias val="$logic_or"/>
    <s:alias val="$_OR_"/>
    <path d="M 0,0 A 30,25 0 0 1 0,25 30,25 0 0 0 30,12.5 30,25 0 0 0 0,0 Z" class="cell_\6"/>
    <g s:x="2" s:y="5" s:pid="A"/>
    <g s:x="2" s:y="20" s:pid="B"/>
    <g s:x="30" s:y="12.5" s:pid="Y"/>
  </g>
  <g s:type="and" transform="translate(148,209.5)" s:width="30" s:height="25" id="cell_\7">
    <s:alias val="$and"/>
    <s:alias val="$logic_and"/>
    <s:alias val="$_AND_"/>
    <path d="M0,0 L0,25 L18,25 A12 12.5 0 0 0 18,0 Z" class="cell_\7"/>
    <g s:x="0" s:y="5" s:pid="A"/>
    <g s:x="0" s:y="20" s:pid="B"/>
    <g s:x="30" s:y="12.5" s:pid="Y"/>
  </g>
  <g s:type="or" transform="translate(216,202)" s:width="30" s:height="25" id="cell_\8">
    <s:alias val="$or"/>
    <s:alias val="$logic_or"/>
    <s:alias val="$_OR_"/>
    <path d="M 0,0 A 30,25 0 0 1 0,25 30,25 0 0 0 30,12.5 30,25 0 0 0 0,0 Z" class="cell_\8"/>
    <g s:x="2" s:y="5" s:pid="A"/>
    <g s:x="2" s:y="20" s:pid="B"/>
    <g s:x="30" s:y="12.5" s:pid="Y"/>
  </g>
  <g s:type="inputExt" transform="translate(12,22)" s:width="30" s:height="20" id="cell_A">
    <text x="15" y="-4" class="nodelabel cell_A" s:attribute="ref">A</text>
    <s:alias val="$_inputExt_"/>
    <path d="M0,0 L0,20 L15,20 L30,10 L15,0 Z" class="cell_A"/>
    <g s:x="30" s:y="10" s:pid="Y"/>
  </g>
  <g s:type="inputExt" transform="translate(12,87)" s:width="30" s:height="20" id="cell_B">
    <text x="15" y="-4" class="nodelabel cell_B" s:attribute="ref">B</text>
    <s:alias val="$_inputExt_"/>
    <path d="M0,0 L0,20 L15,20 L30,10 L15,0 Z" class="cell_B"/>
    <g s:x="30" s:y="10" s:pid="Y"/>
  </g>
  <g s:type="inputExt" transform="translate(12,152)" s:width="30" s:height="20" id="cell_Cin">
    <text x="15" y="-4" class="nodelabel cell_Cin" s:attribute="ref">Cin</text>
    <s:alias val="$_inputExt_"/>
    <path d="M0,0 L0,20 L15,20 L30,10 L15,0 Z" class="cell_Cin"/>
    <g s:x="30" s:y="10" s:pid="Y"/>
  </g>
  <g s:type="outputExt" transform="translate(283,121)" s:width="30" s:height="20" id="cell_S">
    <text x="15" y="-4" class="nodelabel cell_S" s:attribute="ref">S</text>
    <s:alias val="$_outputExt_"/>
    <path d="M30,0 L30,20 L15,20 L0,10 L15,0 Z" class="cell_S"/>
    <g s:x="0" s:y="10" s:pid="A"/>
  </g>
  <g s:type="outputExt" transform="translate(283,204.5)" s:width="30" s:height="20" id="cell_Cout">
    <text x="15" y="-4" class="nodelabel cell_Cout" s:attribute="ref">Cout</text>
    <s:alias val="$_outputExt_"/>
    <path d="M30,0 L30,20 L15,20 L0,10 L15,0 Z" class="cell_Cout"/>
    <g s:x="0" s:y="10" s:pid="A"/>
  </g>
  <line x1="42" x2="72" y1="32" y2="32" class="net_2"/>
  <line x1="72" x2="72" y1="32" y2="51" class="net_2"/>
  <circle cx="72" cy="51" r="2" style="fill:#000" class="net_2"/>
  <line x1="72" x2="149" y1="51" y2="51" class="net_2"/>
  <line x1="42" x2="72" y1="32" y2="32" class="net_2"/>
  <line x1="72" x2="72" y1="32" y2="82" class="net_2"/>
  <circle cx="72" cy="82" r="2" style="fill:#000" class="net_2"/>
  <line x1="72" x2="82" y1="82" y2="82" class="net_2"/>
  <line x1="42" x2="72" y1="32" y2="32" class="net_2"/>
  <line x1="72" x2="72" y1="32" y2="177" class="net_2"/>
  <line x1="72" x2="82" y1="177" y2="177" class="net_2"/>
  <line x1="42" x2="52" y1="97" y2="97" class="net_3"/>
  <line x1="52" x2="52" y1="97" y2="66" class="net_3"/>
  <circle cx="52" cy="97" r="2" style="fill:#000" class="net_3"/>
  <line x1="52" x2="149" y1="66" y2="66" class="net_3"/>
  <line x1="42" x2="82" y1="97" y2="97" class="net_3"/>
  <line x1="42" x2="52" y1="97" y2="97" class="net_3"/>
  <line x1="52" x2="52" y1="97" y2="229.5" class="net_3"/>
  <line x1="52" x2="148" y1="229.5" y2="229.5" class="net_3"/>
  <line x1="180" x2="190" y1="58.5" y2="58.5" class="net_7"/>
  <line x1="190" x2="190" y1="58.5" y2="123.5" class="net_7"/>
  <line x1="190" x2="217" y1="123.5" y2="123.5" class="net_7"/>
  <line x1="42" x2="62" y1="162" y2="162" class="net_4"/>
  <line x1="62" x2="62" y1="162" y2="138.5" class="net_4"/>
  <circle cx="62" cy="162" r="2" style="fill:#000" class="net_4"/>
  <line x1="62" x2="217" y1="138.5" y2="138.5" class="net_4"/>
  <line x1="42" x2="82" y1="162" y2="162" class="net_4"/>
  <line x1="42" x2="62" y1="162" y2="162" class="net_4"/>
  <line x1="62" x2="62" y1="162" y2="214.5" class="net_4"/>
  <line x1="62" x2="148" y1="214.5" y2="214.5" class="net_4"/>
  <line x1="112" x2="122" y1="89.5" y2="89.5" class="net_8"/>
  <line x1="122" x2="122" y1="89.5" y2="154.5" class="net_8"/>
  <line x1="122" x2="150" y1="154.5" y2="154.5" class="net_8"/>
  <line x1="112" x2="150" y1="169.5" y2="169.5" class="net_9"/>
  <line x1="178" x2="190" y1="162" y2="162" class="net_10"/>
  <line x1="190" x2="190" y1="162" y2="207" class="net_10"/>
  <line x1="190" x2="218" y1="207" y2="207" class="net_10"/>
  <line x1="178" x2="218" y1="222" y2="222" class="net_11"/>
  <line x1="248" x2="283" y1="131" y2="131" class="net_5"/>
  <line x1="246" x2="283" y1="214.5" y2="214.5" class="net_6"/>
</svg>
